g Boulder_1
v 0.361763 0.782877 0.5723305
v 0.5844982 0.6023415 0.1985393
v 0.5561514 0.7123736 0.5623499
v 0.09900212 0.5603126 -0.5661338
v -0.3790312 0.7622325 -0.6812078
v -0.008372784 0.3631856 -0.8105097
v 0.2377918 0.5380059 -0.6825811
v 0.09900212 0.5603126 -0.5661338
v -0.008372784 0.3631856 -0.8105097
v -0.4212265 1.030577 -0.4935866
v -0.4010749 1.178656 -0.04782504
v -0.5558865 1.059165 -0.3132203
v 0.6734318 -1.157824 0.4687482
v 0.3981306 -1.193627 0.3695519
v -0.2953537 -1.130891 0.4912229
v 0.2377918 0.5380059 -0.6825811
v 0.3486934 0.548124 -0.4409299
v 0.09900212 0.5603126 -0.5661338
v 0.07387781 0.6931055 -0.5507703
v 0.09900212 0.5603126 -0.5661338
v 0.3486934 0.548124 -0.4409299
v 1.023295 -0.04332852 -0.2544004
v 1.112577 -0.6060362 -0.1064339
v 1.265414 0.01517224 0.5688221
v 1.172047 -0.3779259 0.6112334
v 1.071325 -0.8465197 0.02175409
v 0.941466 -0.9479417 0.5620358
v -0.4010749 1.178656 -0.04782504
v -0.1973634 1.111646 0.6043831
v -0.5624573 0.8981626 0.6564232
v -0.575388 0.9820612 0.3254603
v -0.9665585 0.402442 0.6017058
v -0.5558865 1.059165 -0.3132203
v -1.050132 0.3588831 0.3305162
v -0.8326406 0.7746357 -0.2314125
v 0.6734318 -1.157824 0.4687482
v 0.941466 -0.9479417 0.5620358
v 1.071325 -0.8465197 0.02175409
v 0.907921 -0.953912 -0.1618403
v -0.5842378 0.4779128 -0.7018147
v -0.4212265 1.030577 -0.4935866
v -0.7878227 0.5345451 -0.4735281
v -0.8326406 0.7746357 -0.2314125
v -0.5558865 1.059165 -0.3132203
v -0.9359279 0.4285846 -0.3009565
v -0.9274387 0.1001549 -0.5188858
v -0.9316086 -0.1966734 -0.5072452
v -1.080879 -0.07986784 0.09564275
v -0.8715575 -0.5804684 -0.2617042
v -0.9475365 -0.3537395 0.1970783
v -0.7045119 -0.6483374 0.2205818
v -0.2953537 -1.130891 0.4912229
v -0.7240927 -0.3953552 0.6408243
v -0.3049536 -1.002764 0.5974904
v -0.8955648 -0.06890368 0.6111376
v -0.9665585 0.402442 0.6017058
v -1.050132 0.3588831 0.3305162
v -0.9316086 -0.1966734 -0.5072452
v -0.6228404 -0.3330626 -0.7031477
v -0.5692918 0.1004775 -0.7798308
v -0.3570313 -0.1356328 -0.834527
v -0.2164438 0.2594921 -0.873807
v -0.3873217 -0.4784298 -0.7517241
v 0.02614379 -0.08241296 -0.8514916
v 0.1692214 0.1775238 -0.8040974
v -0.008658886 -0.5013952 -0.7250503
v 0.4567978 -0.3783641 -0.607671
v 0.7957785 -0.19327 -0.4540448
v 0.2614236 -0.7336509 -0.5240939
v 0.8196478 -0.7231557 -0.3246102
v 0.907921 -0.953912 -0.1618403
v -0.9316086 -0.1966734 -0.5072452
v -0.5692918 0.1004775 -0.7798308
v -0.9274387 0.1001549 -0.5188858
v -0.7878227 0.5345451 -0.4735281
v -0.5842378 0.4779128 -0.7018147
v -0.2164438 0.2594921 -0.873807
v -0.3790312 0.7622325 -0.6812078
v -0.4212265 1.030577 -0.4935866
v -0.3383112 0.9298154 -0.5965839
v -0.008372784 0.3631856 -0.8105097
v 0.1692214 0.1775238 -0.8040974
v -0.008658886 -0.5013952 -0.7250503
v -0.3873217 -0.4784298 -0.7517241
v -0.6308 -0.6428038 -0.4385239
v -0.3013954 -0.7683558 -0.2460427
v -0.4164064 -0.9081802 0.004870534
v 0.2614236 -0.7336509 -0.5240939
v -0.02218175 -1.058244 0.2435371
v -0.2953537 -1.130891 0.4912229
v 0.3981306 -1.193627 0.3695519
v 0.560549 -1.066037 0.0512394
v 0.907921 -0.953912 -0.1618403
v 0.6734318 -1.157824 0.4687482
v 0.2377918 0.5380059 -0.6825811
v -0.008372784 0.3631856 -0.8105097
v 0.1692214 0.1775238 -0.8040974
v 0.7957785 -0.19327 -0.4540448
v 1.023295 -0.04332852 -0.2544004
v 0.2377918 0.5380059 -0.6825811
v 1.023295 -0.04332852 -0.2544004
v 0.3486934 0.548124 -0.4409299
v 0.245014 0.7332911 -0.2917851
v 0.07387781 0.6931055 -0.5507703
v 0.04276848 0.9883893 0.09929212
v -0.3383112 0.9298154 -0.5965839
v -0.4212265 1.030577 -0.4935866
v -0.4010749 1.178656 -0.04782504
v 0.07794309 1.012635 0.586356
v -0.1973634 1.111646 0.6043831
v 0.361763 0.782877 0.5723305
v 0.3597414 0.8214217 0.221376
v 0.5844982 0.6023415 0.1985393
v 1.146304 0.1695328 0.6375353
v 1.265414 0.01517224 0.5688221
v 0.5561514 0.7123736 0.5623499
v -0.2953537 -1.130891 0.4912229
v -0.3049536 -1.002764 0.5974904
v 0.6734318 -1.157824 0.4687482
v 0.6496861 -0.9374146 0.6734613
v 0.941466 -0.9479417 0.5620358
v 0.9189898 -0.8119929 0.6498357
v 1.172047 -0.3779259 0.6112334
v 1.112577 -0.6060362 -0.1064339
v 1.023295 -0.04332852 -0.2544004
v 0.7957785 -0.19327 -0.4540448
v 0.8196478 -0.7231557 -0.3246102
v 0.907921 -0.953912 -0.1618403
v 1.071325 -0.8465197 0.02175409
v -0.8326406 0.7746357 -0.2314125
v -1.050132 0.3588831 0.3305162
v -0.9359279 0.4285846 -0.3009565
v -1.080879 -0.07986784 0.09564275
v -0.9274387 0.1001549 -0.5188858
v -0.9316086 -0.1966734 -0.5072452
v -0.3790312 0.7622325 -0.6812078
v 0.09900212 0.5603126 -0.5661338
v -0.3383112 0.9298154 -0.5965839
v 0.07387781 0.6931055 -0.5507703
v 1.172047 -0.3779259 0.6112334
v 1.146304 0.1695328 0.6375353
v 1.265414 0.01517224 0.5688221
v 1.061701 -0.3511109 0.6679599
v 0.9189898 -0.8119929 0.6498357
v 0.9786241 -0.02325892 0.6938705
v 0.6261766 -0.1797683 0.6889666
v 0.6335356 0.3804497 0.6389562
v 0.5561514 0.7123736 0.5623499
v -0.1650453 0.545139 0.6331565
v 0.361763 0.782877 0.5723305
v 0.07794309 1.012635 0.586356
v -0.1973634 1.111646 0.6043831
v -0.5624573 0.8981626 0.6564232
v 0.3011436 -0.443871 0.737048
v 0.6496861 -0.9374146 0.6734613
v -0.3190331 -0.2210851 0.6973768
v -0.3049536 -1.002764 0.5974904
v -0.7240927 -0.3953552 0.6408243
v -0.8955648 -0.06890368 0.6111376
v -0.6621983 0.5222489 0.6793454
v -0.9665585 0.402442 0.6017058
v -0.6228404 -0.3330626 -0.7031477
v -0.6308 -0.6428038 -0.4385239
v -0.3873217 -0.4784298 -0.7517241
v -0.9316086 -0.1966734 -0.5072452
v -0.8715575 -0.5804684 -0.2617042
v -0.4164064 -0.9081802 0.004870534
v -0.2953537 -1.130891 0.4912229
vt 0.02362542 0.3184853
vt 0.02362542 0.2524652
vt 0.0006969549 0.3007086
vt 0.4066985 0.4865305
vt 0.3636711 0.4257225
vt 0.3636711 0.5041711
vt 0.02492056 0.008353706
vt 0.0004882813 0.000771971
vt 0.0004882813 0.04727525
vt 0.332108 0.6313766
vt 0.332108 0.5654885
vt 0.3117405 0.6069574
vt 0.4664791 0.1283716
vt 0.4685664 0.08710866
vt 0.4202851 0.0006074953
vt 0.03297268 0.8298773
vt 0.05643331 0.8588613
vt 0.05643331 0.8196784
vt 0.4814289 0.06748138
vt 0.4661504 0.07888039
vt 0.4843622 0.1135736
vt 0.8150569 0.6065438
vt 0.8466265 0.6827594
vt 0.9338 0.5858358
vt 0.9442467 0.6418031
vt 0.8672954 0.7153907
vt 0.9454051 0.7282434
vt 0.4812489 0.8490726
vt 0.4198021 0.7755215
vt 0.3777404 0.8175833
vt 0.4177878 0.843493
vt 0.3232334 0.8895591
vt 0.4921565 0.8941901
vt 0.3438383 0.9244137
vt 0.4469626 0.9292281
vt 0.2414135 0.9987431
vt 0.2321085 0.950158
vt 0.1539681 0.9628226
vt 0.1428926 0.9987431
vt 0.07789253 0.3362006
vt 0.0005102264 0.3756663
vt 0.08906448 0.3780526
vt 0.06616498 0.4216405
vt 0.008901085 0.407593
vt 0.1158272 0.4020101
vt 0.1514662 0.357064
vt 0.6768818 0.3379479
vt 0.6060898 0.3881329
vt 0.6943687 0.4015608
vt 0.6266519 0.4261279
vt 0.6608467 0.4662825
vt 0.6964722 0.5568086
vt 0.5947381 0.4877358
vt 0.6727944 0.5582088
vt 0.5597783 0.4478564
vt 0.5087292 0.4017268
vt 0.5391362 0.3740579
vt 0.1891115 0.3349347
vt 0.1763334 0.2787432
vt 0.1188167 0.3036145
vt 0.1288594 0.2609549
vt 0.07407155 0.2747376
vt 0.1732713 0.2372005
vt 0.09373469 0.2222556
vt 0.05300366 0.2248374
vt 0.1450167 0.1897217
vt 0.09157187 0.1437041
vt 0.04144741 0.114822
vt 0.1488802 0.1305588
vt 0.09780777 0.06387826
vt 0.1155326 0.02565474
vt 0.1891115 0.3349347
vt 0.1188167 0.3036145
vt 0.1514662 0.357064
vt 0.08906448 0.3780526
vt 0.07789253 0.3362006
vt 0.07407155 0.2747376
vt 0.0285837 0.3371681
vt 0.0005102264 0.3756663
vt 0.005253226 0.3521471
vt 0.04470683 0.259661
vt 0.05300366 0.2248374
vt 0.8154556 0.5488662
vt 0.7864309 0.504135
vt 0.7263415 0.5079346
vt 0.7295054 0.5642774
vt 0.6877202 0.576306
vt 0.8075604 0.6055679
vt 0.6902922 0.644231
vt 0.6383379 0.6352527
vt 0.7074974 0.7063432
vt 0.7593234 0.6952486
vt 0.8154556 0.7136161
vt 0.7223067 0.74478
vt 0.001156821 0.2407657
vt 0.04470683 0.259661
vt 0.05300366 0.2248374
vt 0.04144741 0.114822
vt 0.0005102397 0.09068183
vt 0.477748 0.1243573
vt 0.5318763 0.2641793
vt 0.513011 0.1367938
vt 0.537402 0.110218
vt 0.4972638 0.09309794
vt 0.5933911 0.06708796
vt 0.4901943 0.02645796
vt 0.5056927 0.009149552
vt 0.5710181 0.0004882813
vt 0.6614368 0.06881868
vt 0.6628421 0.02792621
vt 0.6592649 0.1200154
vt 0.6102229 0.1165383
vt 0.606213 0.160273
vt 0.6628421 0.2638718
vt 0.6507421 0.2905161
vt 0.6591644 0.1499283
vt 0.4202851 0.0006074953
vt 0.3976626 0.006459526
vt 0.4664791 0.1283716
vt 0.4253267 0.1381064
vt 0.4492978 0.1747602
vt 0.4269703 0.1798393
vt 0.3976626 0.2440931
vt 0.05673553 0.02789094
vt 0.0005102397 0.09068183
vt 0.04144741 0.114822
vt 0.09780777 0.06387826
vt 0.1155326 0.02565474
vt 0.08585861 0.0007528264
vt 0.5471215 0.2703803
vt 0.5391362 0.3740579
vt 0.5911248 0.2985345
vt 0.6060898 0.3881329
vt 0.6470863 0.3074321
vt 0.6768818 0.3379479
vt 0.4577759 0.004861203
vt 0.4661504 0.07888039
vt 0.4843622 0.0006234184
vt 0.4814289 0.06748138
vt 0.3535805 0.01575966
vt 0.406181 0.07184913
vt 0.4035765 0.04299551
vt 0.3445413 0.03121365
vt 0.2840262 0.000508311
vt 0.3696208 0.07087571
vt 0.3202446 0.09166443
vt 0.3783731 0.1447118
vt 0.4061811 0.1852253
vt 0.3181606 0.2422495
vt 0.3942221 0.2118435
vt 0.3896746 0.2632599
vt 0.3726029 0.3009511
vt 0.3146225 0.3171247
vt 0.2622775 0.09949297
vt 0.2449176 0.01643162
vt 0.224637 0.1834607
vt 0.1454773 0.1066088
vt 0.167207 0.208015
vt 0.1834515 0.2576232
vt 0.2671054 0.2901218
vt 0.22475 0.3107475
vt 0.007540929 0.8586223
vt 0.06347153 0.8701386
vt 0.02540598 0.8235275
vt 0.0006025051 0.9128755
vt 0.06500694 0.9128755
vt 0.1418526 0.8720289
vt 0.2167951 0.8890954
vn 0.3185511 0.9139093 -0.2515852
vn 0.3185511 0.9139093 -0.2515852
vn 0.3185511 0.9139093 -0.2515852
vn 0.4191042 0.6078311 -0.6744576
vn 0.4191042 0.6078311 -0.6744576
vn 0.4191042 0.6078311 -0.6744576
vn -0.3025733 0.8024349 -0.5143419
vn -0.3025733 0.8024349 -0.5143419
vn -0.3025733 0.8024349 -0.5143419
vn -0.2043857 0.9317011 -0.3002661
vn -0.2043857 0.9317011 -0.3002661
vn -0.2043857 0.9317011 -0.3002661
vn 0.0815714 -0.7139202 0.6954595
vn -0.01687631 -0.9246032 0.3805576
vn -0.001412381 -0.670158 0.7422171
vn 0.08999607 0.9924895 -0.08285798
vn 0.08999607 0.9924895 -0.08285798
vn 0.08999607 0.9924895 -0.08285798
vn 0.2732033 0.1614049 -0.9483188
vn 0.375266 0.198487 -0.9054161
vn 0.4476629 0.1858913 -0.8746669
vn 0.9550943 0.07625115 -0.2863224
vn 0.9880663 -0.09284296 -0.1229025
vn 0.986367 -0.1044595 -0.127154
vn 0.9626727 -0.2685374 0.03389864
vn 0.9633029 -0.2645036 0.0456659
vn 0.912375 -0.3818116 0.1476196
vn -0.6223362 0.7739193 0.1172456
vn -0.465869 0.8535686 0.2332096
vn -0.6459339 0.7337303 0.2107352
vn -0.641919 0.7459108 0.1776433
vn -0.7829841 0.6023746 0.1551796
vn -0.6964651 0.71464 0.0650076
vn -0.7866806 0.6004651 0.1434408
vn -0.7481623 0.6557258 0.1013741
vn 0.6074061 -0.7942932 -0.01249198
vn 0.6164432 -0.7873993 0.0003532775
vn 0.5927222 -0.8047373 -0.03283598
vn 0.5836036 -0.8107818 -0.04516219
vn -0.497467 0.2886866 -0.8180383
vn -0.5908812 0.4650901 -0.6592047
vn -0.7087077 0.3487876 -0.6132541
vn -0.7070925 0.434638 -0.5577723
vn -0.6640493 0.4814199 -0.572078
vn -0.8070519 0.3229856 -0.4943151
vn -0.6459732 0.1101165 -0.7553761
vn -0.9686731 -0.1222876 -0.2161442
vn -0.9892159 -0.1414427 0.03802479
vn -0.8941421 -0.447459 0.01703629
vn -0.8510592 -0.470625 0.2328315
vn -0.7854205 -0.5712804 0.2382296
vn -0.7597005 -0.5326143 0.3730646
vn -0.7981123 -0.4947959 0.3437933
vn -0.6714816 -0.5022241 0.5448701
vn -0.8968497 -0.2646842 0.354405
vn -0.9379502 -0.1193125 0.3255978
vn -0.9933816 0.03448913 0.1095601
vn -0.5717671 -0.05381464 -0.8186492
vn -0.4391475 -0.1193071 -0.8904579
vn -0.4529285 0.0553768 -0.8898253
vn -0.1816579 -0.1386362 -0.9735401
vn -0.05417017 0.1581277 -0.9859316
vn -0.1232297 -0.2399227 -0.962939
vn 0.2046406 -0.133111 -0.9697441
vn 0.3857953 0.0993007 -0.9172248
vn 0.2062488 -0.3187712 -0.9251196
vn 0.3960404 -0.2352058 -0.887598
vn 0.5734407 -0.01730164 -0.8190643
vn 0.3170627 -0.3907127 -0.8641845
vn 0.4827342 -0.3167497 -0.8164786
vn 0.6053104 -0.3695633 -0.704998
vn -0.5717671 -0.05381464 -0.8186492
vn -0.4529285 0.0553768 -0.8898253
vn -0.6459732 0.1101165 -0.7553761
vn -0.7087077 0.3487876 -0.6132541
vn -0.497467 0.2886866 -0.8180383
vn -0.05417017 0.1581277 -0.9859316
vn -0.3946283 0.4018456 -0.8263102
vn -0.5908812 0.4650901 -0.6592047
vn -0.3808473 0.4888582 -0.7848395
vn 0.2031715 0.2583511 -0.9444448
vn 0.3857953 0.0993007 -0.9172248
vn -0.1377665 -0.8298298 -0.540743
vn -0.0197312 -0.8788973 -0.4766029
vn -0.0324142 -0.8677026 -0.4960256
vn -0.08758969 -0.8648126 -0.4943959
vn -0.04958713 -0.8786905 -0.4748097
vn -0.1647648 -0.8503457 -0.4997648
vn -0.1367827 -0.8926455 -0.4295049
vn -0.1282249 -0.9045126 -0.4067129
vn -0.01952256 -0.9298027 -0.3675404
vn -0.01686662 -0.9144827 -0.4042735
vn 0.04553536 -0.9073986 -0.417797
vn 0.2067433 -0.9508342 -0.2305893
vn 0.4721168 0.2039838 -0.8576108
vn 0.2031715 0.2583511 -0.9444448
vn 0.3857953 0.0993007 -0.9172248
vn 0.5734407 -0.01730164 -0.8190643
vn 0.645664 0.03591441 -0.7627765
vn 0.6717438 0.6602362 -0.3359292
vn 0.6941672 0.6623729 -0.2817697
vn 0.6486106 0.6656285 -0.3691111
vn 0.5356387 0.7644579 -0.3587414
vn 0.4837864 0.7852501 -0.3864364
vn 0.4795299 0.859482 -0.1770362
vn 0.5072648 0.7900295 -0.3442903
vn 0.4999501 0.7988819 -0.3344213
vn 0.4363762 0.8741178 -0.2132929
vn 0.5011799 0.8632674 -0.05989855
vn 0.3378929 0.941143 -0.008840662
vn 0.6043162 0.7965962 0.01537947
vn 0.5887151 0.8055903 -0.06662413
vn 0.689994 0.6949608 -0.2023312
vn 0.7029951 0.6697707 -0.2391761
vn 0.7073641 0.659291 -0.2548947
vn 0.679081 0.7156183 -0.1635224
vn -0.001412381 -0.670158 0.7422171
vn -0.002118594 -0.6466733 0.7627642
vn 0.0815714 -0.7139202 0.6954595
vn 0.1382475 -0.6432262 0.7530921
vn 0.3819119 -0.5085501 0.7716995
vn 0.5335131 -0.3948547 0.7479662
vn 0.6623082 -0.3261316 0.6745267
vn 0.6898413 -0.2263178 -0.6876767
vn 0.645664 0.03591441 -0.7627765
vn 0.5734407 -0.01730164 -0.8190643
vn 0.4827342 -0.3167497 -0.8164786
vn 0.6053104 -0.3695633 -0.704998
vn 0.7893691 -0.3887039 -0.4751902
vn -0.9414591 0.3083778 -0.1362271
vn -0.9933816 0.03448913 0.1095601
vn -0.9638532 0.2069679 -0.1677837
vn -0.9892159 -0.1414427 0.03802479
vn -0.9724523 0.05949208 -0.2253824
vn -0.9686731 -0.1222876 -0.2161442
vn 0.3565714 0.3506464 -0.86597
vn 0.375266 0.198487 -0.9054161
vn 0.336057 0.3248783 -0.8840361
vn 0.2732033 0.1614049 -0.9483188
vn 0.4100955 -0.07880873 0.9086313
vn 0.2589862 0.1163794 0.9588441
vn 0.4804956 -0.01952951 0.8767797
vn 0.2642047 -0.06226344 0.9624547
vn 0.1326943 -0.04537413 0.9901178
vn 0.1492494 0.05186612 0.9874384
vn 0.03520186 0.04120771 0.9985303
vn 0.05018556 0.1701261 0.9841435
vn 0.1313576 0.2482778 0.9597413
vn 0.06423892 0.07874178 0.9948232
vn 0.07092388 0.1555995 0.9852707
vn 0.08812208 0.05377128 0.9946573
vn 0.09632898 0.0559701 0.9937747
vn 0.03754983 0.0620526 0.9973662
vn -0.02682179 -0.06054354 0.9978052
vn 0.03495387 -0.0909402 0.9952427
vn -0.07089914 -0.02994323 0.997034
vn -0.07363596 -0.1277146 0.9890737
vn -0.1229443 -0.07511933 0.9895664
vn -0.172329 -0.02824248 0.9846345
vn -0.1208469 0.06174881 0.9907487
vn -0.253758 0.01793335 0.9671015
vn -0.5489544 -0.5306682 -0.6457866
vn -0.5362306 -0.6627963 -0.522645
vn -0.4846538 -0.5609422 -0.6711591
vn -0.60245 -0.5018165 -0.6206724
vn -0.5411327 -0.6929873 -0.4763864
vn -0.4472139 -0.8493024 -0.2805088
vn -0.4492325 -0.8493495 -0.2771201
g Boulder_1_0
f 3/3/3 2/2/2 1/1/1
f 6/6/6 5/5/5 4/4/4
f 9/9/9 8/8/8 7/7/7
f 12/12/12 11/11/11 10/10/10
f 15/15/15 14/14/14 13/13/13
f 18/18/18 17/17/17 16/16/16
f 21/21/21 20/20/20 19/19/19
f 24/24/24 23/23/23 22/22/22
f 24/24/24 25/25/25 23/23/23
f 23/23/23 25/25/25 26/26/26
f 25/25/25 27/27/27 26/26/26
f 30/30/30 29/29/29 28/28/28
f 28/28/28 31/31/31 30/30/30
f 31/31/31 32/32/32 30/30/30
f 33/33/33 31/31/31 28/28/28
f 31/31/31 34/34/34 32/32/32
f 35/35/35 31/31/31 33/33/33
f 34/34/34 31/31/31 35/35/35
f 38/38/38 37/37/37 36/36/36
f 39/39/39 38/38/38 36/36/36
f 42/42/42 41/41/41 40/40/40
f 41/41/41 42/42/42 43/43/43
f 41/41/41 43/43/43 44/44/44
f 42/42/42 45/45/45 43/43/43
f 42/42/42 46/46/46 45/45/45
f 49/49/49 48/48/48 47/47/47
f 49/49/49 50/50/50 48/48/48
f 49/49/49 51/51/51 50/50/50
f 49/49/49 52/52/52 51/51/51
f 52/52/52 53/53/53 51/51/51
f 53/53/53 50/50/50 51/51/51
f 54/54/54 53/53/53 52/52/52
f 55/55/55 50/50/50 53/53/53
f 50/50/50 55/55/55 48/48/48
f 55/55/55 56/56/56 48/48/48
f 48/48/48 56/56/56 57/57/57
f 60/60/60 59/59/59 58/58/58
f 59/59/59 60/60/60 61/61/61
f 60/60/60 62/62/62 61/61/61
f 63/63/63 59/59/59 61/61/61
f 61/61/61 62/62/62 64/64/64
f 63/63/63 61/61/61 64/64/64
f 62/62/62 65/65/65 64/64/64
f 63/63/63 64/64/64 66/66/66
f 64/64/64 65/65/65 67/67/67
f 66/66/66 64/64/64 67/67/67
f 67/67/67 65/65/65 68/68/68
f 69/69/69 66/66/66 67/67/67
f 70/70/70 67/67/67 68/68/68
f 70/70/70 69/69/69 67/67/67
f 69/69/69 70/70/70 71/71/71
f 74/74/74 73/73/73 72/72/72
f 74/74/74 75/75/75 73/73/73
f 75/75/75 76/76/76 73/73/73
f 76/76/76 77/77/77 73/73/73
f 77/77/77 76/76/76 78/78/78
f 79/79/79 78/78/78 76/76/76
f 78/78/78 79/79/79 80/80/80
f 78/78/78 81/81/81 77/77/77
f 77/77/77 81/81/81 82/82/82
f 85/85/85 84/84/84 83/83/83
f 85/85/85 83/83/83 86/86/86
f 86/86/86 87/87/87 85/85/85
f 86/86/86 83/83/83 88/88/88
f 87/87/87 86/86/86 89/89/89
f 89/89/89 86/86/86 88/88/88
f 87/87/87 89/89/89 90/90/90
f 91/91/91 90/90/90 89/89/89
f 88/88/88 92/92/92 89/89/89
f 89/89/89 92/92/92 91/91/91
f 93/93/93 92/92/92 88/88/88
f 93/93/93 91/91/91 92/92/92
f 93/93/93 94/94/94 91/91/91
f 97/97/97 96/96/96 95/95/95
f 95/95/95 98/98/98 97/97/97
f 99/99/99 98/98/98 95/95/95
f 102/102/102 101/101/101 100/100/100
f 101/101/101 102/102/102 103/103/103
f 102/102/102 104/104/104 103/103/103
f 103/103/103 104/104/104 105/105/105
f 104/104/104 106/106/106 105/105/105
f 106/106/106 107/107/107 105/105/105
f 107/107/107 108/108/108 105/105/105
f 109/109/109 105/105/105 108/108/108
f 110/110/110 109/109/109 108/108/108
f 109/109/109 111/111/111 105/105/105
f 112/112/112 105/105/105 111/111/111
f 105/105/105 112/112/112 103/103/103
f 111/111/111 113/113/113 112/112/112
f 112/112/112 113/113/113 103/103/103
f 113/113/113 101/101/101 103/103/103
f 113/113/113 114/114/114 101/101/101
f 114/114/114 115/115/115 101/101/101
f 116/116/116 114/114/114 113/113/113
f 119/119/119 118/118/118 117/117/117
f 120/120/120 118/118/118 119/119/119
f 121/121/121 120/120/120 119/119/119
f 121/121/121 122/122/122 120/120/120
f 121/121/121 123/123/123 122/122/122
f 126/126/126 125/125/125 124/124/124
f 124/124/124 127/127/127 126/126/126
f 128/128/128 127/127/127 124/124/124
f 124/124/124 129/129/129 128/128/128
f 132/132/132 131/131/131 130/130/130
f 132/132/132 133/133/133 131/131/131
f 134/134/134 133/133/133 132/132/132
f 135/135/135 133/133/133 134/134/134
f 138/138/138 137/137/137 136/136/136
f 137/137/137 138/138/138 139/139/139
f 142/142/142 141/141/141 140/140/140
f 140/140/140 141/141/141 143/143/143
f 140/140/140 143/143/143 144/144/144
f 141/141/141 145/145/145 143/143/143
f 143/143/143 146/146/146 144/144/144
f 143/143/143 145/145/145 146/146/146
f 145/145/145 141/141/141 147/147/147
f 145/145/145 147/147/147 146/146/146
f 141/141/141 148/148/148 147/147/147
f 147/147/147 149/149/149 146/146/146
f 147/147/147 150/150/150 149/149/149
f 148/148/148 150/150/150 147/147/147
f 150/150/150 151/151/151 149/149/149
f 151/151/151 152/152/152 149/149/149
f 152/152/152 153/153/153 149/149/149
f 146/146/146 154/154/154 144/144/144
f 154/154/154 146/146/146 149/149/149
f 144/144/144 154/154/154 155/155/155
f 155/155/155 154/154/154 156/156/156
f 156/156/156 154/154/154 149/149/149
f 157/157/157 155/155/155 156/156/156
f 157/157/157 156/156/156 158/158/158
f 158/158/158 156/156/156 159/159/159
f 149/149/149 153/153/153 160/160/160
f 156/156/156 149/149/149 160/160/160
f 156/156/156 160/160/160 159/159/159
f 153/153/153 161/161/161 160/160/160
f 160/160/160 161/161/161 159/159/159
f 164/164/164 163/163/163 162/162/162
f 165/165/165 162/162/162 163/163/163
f 166/166/166 165/165/165 163/163/163
f 166/166/166 163/163/163 167/167/167
f 167/167/167 168/168/168 166/166/166
