g Structures_Cube
v -0.456524 0.4815173 -0.4758823
v -0.4974747 0.4881249 0.01641105
v -0.4900196 0.4590255 -0.4231835
v 0.48975 -0.4876958 -0.4370436
v 0.4660689 0.444056 -0.4829595
v 0.4412677 -0.4861867 -0.4827014
v -0.473669 -0.4561767 0.4626442
v -0.4360628 -0.482599 0.4826863
v -0.4859959 -0.4776196 -0.1973353
v -0.473669 -0.4561767 0.4626442
v -0.4797997 0.4864964 0.4935055
v -0.4360628 -0.482599 0.4826863
v 0.4518566 0.4817624 -0.4398998
v -0.1329624 0.4691342 -0.4867198
v 0.4660689 0.444056 -0.4829595
v -0.456524 0.4815173 -0.4758823
v -0.4360628 -0.482599 0.4826863
v -0.4797997 0.4864964 0.4935055
v 0.4529341 -0.4831016 0.4833128
v 0.4606121 0.440257 0.4855899
v 0.4860385 0.4838505 0.4687031
v 0.4518566 0.4817624 -0.4398998
v -0.4974747 0.4881249 0.01641105
v -0.456524 0.4815173 -0.4758823
v -0.4797997 0.4864964 0.4935055
v 0.4860385 0.4838505 0.4687031
v 0.4412677 -0.4861867 -0.4827014
v -0.4613721 0.0007731095 -0.4891017
v -0.4700139 -0.4838627 -0.5011657
v 0.4660689 0.444056 -0.4829595
v -0.1329624 0.4691342 -0.4867198
v -0.456524 0.4815173 -0.4758823
v -0.4974747 0.4881249 0.01641105
v -0.4797997 0.4864964 0.4935055
v -0.473669 -0.4561767 0.4626442
v -0.4859959 -0.4776196 -0.1973353
v -0.4900196 0.4590255 -0.4231835
v -0.4700139 -0.4838627 -0.5011657
v -0.4700139 -0.4838627 -0.5011657
v -0.4859959 -0.4776196 -0.1973353
v -0.4360628 -0.482599 0.4826863
v -0.0339967 -0.4886219 0.06401017
v 0.4412677 -0.4861867 -0.4827014
v 0.4529341 -0.4831016 0.4833128
v 0.48975 -0.4876958 -0.4370436
v 0.4889136 -0.470538 0.4475536
v -0.4900196 0.4590255 -0.4231835
v -0.4700139 -0.4838627 -0.5011657
v -0.4613721 0.0007731095 -0.4891017
v -0.456524 0.4815173 -0.4758823
v 0.4660689 0.444056 -0.4829595
v 0.48975 -0.4876958 -0.4370436
v 0.4892864 0.4494304 -0.4229272
v 0.4889136 -0.470538 0.4475536
v 0.4860385 0.4838505 0.4687031
v 0.4860385 0.4838505 0.4687031
v 0.4889136 -0.470538 0.4475536
v 0.4529341 -0.4831016 0.4833128
v 0.4606121 0.440257 0.4855899
v 0.4892864 0.4494304 -0.4229272
v 0.4860385 0.4838505 0.4687031
v 0.4518566 0.4817624 -0.4398998
v 0.4660689 0.444056 -0.4829595
vt 0.3455013 0.8384348
vt 0.3455013 0.6715
vt 0.3329431 0.8198544
vt 0.6877003 0.9849852
vt 0.6877003 0.6696639
vt 0.6652545 0.9833013
vt 0.8062264 0.8923153
vt 0.8212926 0.9000649
vt 0.8212926 0.6696639
vt 0.7870905 0.6790797
vt 0.8011754 0.9974745
vt 0.8011754 0.6696639
vt 0.719034 0.6749036
vt 0.73826 0.8722575
vt 0.73826 0.6696639
vt 0.7348647 0.981677
vt 0.6655145 0.6499352
vt 0.992996 0.6646129
vt 0.6652545 0.349544
vt 0.9772567 0.346843
vt 0.992996 0.3381486
vt 0.3529915 0.6627862
vt 0.4988927 0.3381486
vt 0.3329431 0.3562597
vt 0.6602036 0.3399845
vt 0.6602036 0.666449
vt 0.6744218 0.00609137
vt 0.9816989 0.1663587
vt 0.9823865 0.002525459
vt 0.6704332 0.3205058
vt 0.8729479 0.3261519
vt 0.9823865 0.3288698
vt 0.166639 0.3366325
vt 0.3278922 0.3413185
vt 0.3278922 0.02261277
vt 0.1052027 0.008083479
vt 0.01848609 0.3218871
vt 0.002525459 0.002525459
vt 0.3329431 0.3275567
vt 0.4356236 0.3330977
vt 0.6653822 0.31584
vt 0.523806 0.1800777
vt 0.338954 0.0196221
vt 0.6653822 0.01544329
vt 0.3543751 0.003224961
vt 0.6533417 0.002525459
vt 0.6927512 0.6768852
vt 0.7129338 0.9960072
vt 0.7139831 0.832176
vt 0.7139831 0.6696639
vt 0.3235484 0.3463694
vt 0.008263778 0.3511906
vt 0.3244979 0.3681735
vt 0.002525459 0.6500964
vt 0.3244979 0.6696808
vt 0.7502028 0.6696639
vt 0.7433109 0.9921542
vt 0.7604358 0.9964609
vt 0.7604358 0.6844519
vt 0.7654867 0.6911557
vt 0.7820395 0.9922077
vt 0.7820395 0.6849743
vt 0.7692847 0.6696639
vn -0.6220057 0.7805369 -0.06221738
vn -0.6220057 0.7805369 -0.06221738
vn -0.6220057 0.7805369 -0.06221738
vn 0.6851608 -0.01846918 -0.7281577
vn 0.6851608 -0.01846918 -0.7281577
vn 0.6851608 -0.01846918 -0.7281577
vn -0.5877047 -0.8082182 0.03723633
vn -0.5877047 -0.8082182 0.03723633
vn -0.5877047 -0.8082182 0.03723633
vn -0.48736 -0.03173757 0.8726242
vn -0.48736 -0.03173757 0.8726242
vn -0.48736 -0.03173757 0.8726242
vn 0.0353841 0.7613856 -0.647333
vn 0.01879446 0.8811715 -0.4724231
vn 0.03581032 0.7576699 -0.6516548
vn 0.01823121 0.8844531 -0.4662728
vn -0.0007110839 -0.01119569 0.9999371
vn 0.004590909 0.004764166 0.9999782
vn 0.003705389 -0.006947499 0.999969
vn 0.01789046 0.1960147 0.9804378
vn 0.02501676 0.3483814 0.937019
vn 0.003095523 0.999985 -0.004523608
vn 0.005466102 0.9999818 -0.00257126
vn 0.0002608928 0.9999102 -0.01339939
vn 0.005543448 0.9999845 0.0004613217
vn 0.002677925 0.9999936 -0.002398935
vn 0.01100155 0.007250442 -0.9999132
vn 0.003938431 0.0138024 -0.999897
vn 0.02031419 0.02451793 -0.999493
vn 0.006677122 -0.0001141202 -0.9999777
vn -0.006004663 0.009295644 -0.9999388
vn -0.03240011 0.02779929 -0.9990883
vn -0.9998941 -0.009747385 0.01080435
vn -0.9992858 -0.007710039 0.03699436
vn -0.9996096 -0.0136895 0.02435829
vn -0.9997402 -0.01531556 -0.0168807
vn -0.9996855 -0.009854164 -0.0230573
vn -0.9984955 -0.01687026 -0.05217623
vn -0.01846516 -0.9998265 -0.002493871
vn -0.2159133 -0.9763738 0.008704906
vn -0.01190029 -0.9998986 0.007836407
vn -0.002900568 -0.9999894 0.003602443
vn -0.01029844 -0.9998571 -0.01340625
vn 0.116989 -0.993057 0.0123052
vn -0.001233236 -0.9999565 -0.009246417
vn 0.3459688 -0.9380631 0.01852188
vn -0.8473982 0.0233282 -0.5304453
vn -0.8283381 0.02869794 -0.5594929
vn -0.8292204 0.02845637 -0.5581969
vn -0.8481619 0.02310605 -0.5292329
vn 0.9324825 0.005901761 -0.361167
vn 0.9998924 0.0007154584 -0.01465603
vn 0.9848137 0.003798997 -0.1735725
vn 0.9999962 0.001667458 0.002190578
vn 0.9999895 0.002934159 0.003529292
vn 0.5742566 -0.007291225 0.8186429
vn 0.7072425 -0.01353325 0.7068415
vn 0.7040828 -0.01337748 0.7099919
vn 0.5611854 -0.006707441 0.827663
vn 0.6821169 0.7186023 -0.1353785
vn 0.6603318 0.7505038 -0.0265668
vn 0.6885437 0.7023891 -0.180436
vn 0.6983022 0.6367094 -0.3270705
g Structures_Cube_0
f 3/3/3 2/2/2 1/1/1
f 6/6/6 5/5/5 4/4/4
f 9/9/9 8/8/8 7/7/7
f 12/12/12 11/11/11 10/10/10
f 15/15/15 14/14/14 13/13/13
f 16/16/16 13/13/13 14/14/14
f 19/19/19 18/18/18 17/17/17
f 20/20/20 18/18/18 19/19/19
f 18/18/18 20/20/20 21/21/21
f 24/24/24 23/23/23 22/22/22
f 22/22/22 23/23/23 25/25/25
f 25/25/25 26/26/26 22/22/22
f 29/29/29 28/28/28 27/27/27
f 27/27/27 28/28/28 30/30/30
f 31/31/31 30/30/30 28/28/28
f 28/28/28 32/32/32 31/31/31
f 35/35/35 34/34/34 33/33/33
f 35/35/35 33/33/33 36/36/36
f 36/36/36 33/33/33 37/37/37
f 38/38/38 36/36/36 37/37/37
f 41/41/41 40/40/40 39/39/39
f 42/42/42 41/41/41 39/39/39
f 43/43/43 42/42/42 39/39/39
f 42/42/42 44/44/44 41/41/41
f 45/45/45 42/42/42 43/43/43
f 45/45/45 44/44/44 42/42/42
f 45/45/45 46/46/46 44/44/44
f 49/49/49 48/48/48 47/47/47
f 50/50/50 49/49/49 47/47/47
f 53/53/53 52/52/52 51/51/51
f 53/53/53 54/54/54 52/52/52
f 53/53/53 55/55/55 54/54/54
f 58/58/58 57/57/57 56/56/56
f 58/58/58 56/56/56 59/59/59
f 62/62/62 61/61/61 60/60/60
f 60/60/60 63/63/63 62/62/62
