g Structure_Disc
v -0.459536 -0.07646699 -0.05117966
v -0.4764376 0.07527251 -0.01103793
v -0.4450098 -0.0811132 0.06289966
v -0.4581003 0.08255669 0.1176117
v -0.4314639 -0.01101487 0.1644849
v -0.3223832 -0.07263818 -0.3319262
v -0.3489694 0.066496 -0.2919072
v -0.4119025 -0.07534263 -0.1428362
v -0.4143416 0.07068998 -0.153639
v -0.459536 -0.07646699 -0.05117966
v -0.4764376 0.07527251 -0.01103793
v 0.01692827 0.07736471 -0.4198379
v -0.1005419 0.07380167 -0.3801521
v -0.0945412 -0.08071913 -0.3871882
v -0.2603651 0.06896026 -0.3260399
v -0.3223832 -0.07263818 -0.3319262
v -0.3489694 0.066496 -0.2919072
v -0.2189161 0.07352742 0.3729594
v -0.1392714 -0.07003978 0.3728828
v -0.2989382 -0.074169 0.3248813
v -0.05145407 0.07437051 0.4238013
v 0.01884589 -0.06593695 0.4205467
v -0.3537827 0.07832364 0.2342471
v -0.2189161 0.07352742 0.3729594
v -0.2989382 -0.074169 0.3248813
v -0.3907944 -0.01423568 0.2263774
v -0.4581003 0.08255669 0.1176117
v -0.4314639 -0.01101487 0.1644849
v 0.3854361 -0.07943331 -0.004632476
v 0.3735351 0.07840963 -0.07024877
v 0.3068719 -0.0850445 -0.1751853
v 0.3269877 0.07315925 -0.1708142
v 0.2810448 0.04943859 -0.2654267
v 0.2509617 -0.02628698 -0.3122894
v 0.2620674 -0.09027532 -0.271941
v 0.2055333 -0.07731613 0.3246604
v 0.1606109 -0.0262603 0.3697464
v 0.206091 0.08515871 0.3325085
v 0.3325711 -0.08753983 0.2240126
v 0.324131 0.01497903 0.2194158
v 0.2705642 0.09088406 0.2556455
v 0.04527483 0.07829743 0.391744
v 0.206091 0.08515871 0.3325085
v 0.1606109 -0.0262603 0.3697464
v 0.121451 -0.02683856 0.3784738
v 0.06089651 -0.04066079 0.3986101
v 0.01884589 -0.06593695 0.4205467
v -0.05145407 0.07437051 0.4238013
v 0.1606109 -0.0262603 0.3697464
v 0.2055333 -0.07731613 0.3246604
v 0.01884589 -0.06593695 0.4205467
v 0.121451 -0.02683856 0.3784738
v 0.06089651 -0.04066079 0.3986101
v 0.01692827 0.07736471 -0.4198379
v -0.0945412 -0.08071913 -0.3871882
v 0.08634773 -0.01403256 -0.3984507
v 0.09067616 -0.0890825 -0.381034
v 0.1701582 -0.05040244 -0.3683672
v 0.1557551 -0.09283088 -0.3558189
v 0.3012654 0.07249581 -0.2153312
v 0.2756719 0.07185904 -0.2550556
v 0.2810448 0.04943859 -0.2654267
v 0.3269877 0.07315925 -0.1708142
v 0.334752 0.03620641 0.1597089
v 0.324131 0.01497903 0.2194158
v 0.2705642 0.09088406 0.2556455
v 0.3328637 0.08932919 0.1455212
v 0.2821585 0.0947735 0.1907569
v 0.3325711 -0.08753983 0.2240126
v 0.324131 0.01497903 0.2194158
v 0.334752 0.03620641 0.1597089
v 0.3854361 -0.07943331 -0.004632476
v 0.3328637 0.08932919 0.1455212
v 0.3735351 0.07840963 -0.07024877
v 0.1993466 -0.09548681 -0.2995411
v 0.2620674 -0.09027532 -0.271941
v 0.2509617 -0.02628698 -0.3122894
v 0.1701582 -0.05040244 -0.3683672
v 0.1557551 -0.09283088 -0.3558189
v 0.2149068 0.0816713 -0.1165932
v 0.3328637 0.08932919 0.1455212
v 0.2821585 0.0947735 0.1907569
v -0.09578101 0.09407522 0.0545068
v 0.3735351 0.07840963 -0.07024877
v 0.01692827 0.07736471 -0.4198379
v 0.3269877 0.07315925 -0.1708142
v 0.1347068 0.07538787 -0.3292184
v 0.3012654 0.07249581 -0.2153312
v 0.2756719 0.07185904 -0.2550556
v -0.2674847 0.07668848 -0.1742086
v 0.01692827 0.07736471 -0.4198379
v -0.09578101 0.09407522 0.0545068
v -0.1005419 0.07380167 -0.3801521
v -0.4581003 0.08255669 0.1176117
v -0.2603651 0.06896026 -0.3260399
v -0.4764376 0.07527251 -0.01103793
v -0.3489694 0.066496 -0.2919072
v -0.4143416 0.07068998 -0.153639
v -0.04156712 0.08351772 0.2643568
v 0.2821585 0.0947735 0.1907569
v 0.2705642 0.09088406 0.2556455
v -0.09578101 0.09407522 0.0545068
v 0.206091 0.08515871 0.3325085
v -0.4581003 0.08255669 0.1176117
v 0.04527483 0.07829743 0.391744
v -0.3537827 0.07832364 0.2342471
v -0.05145407 0.07437051 0.4238013
v -0.2189161 0.07352742 0.3729594
v -0.04750451 -0.08672241 0.2217415
v 0.3325711 -0.08753983 0.2240126
v 0.109555 -0.1030042 0.07815103
v 0.2055333 -0.07731613 0.3246604
v -0.3651327 -0.08880091 0.1838006
v 0.01884589 -0.06593695 0.4205467
v -0.2989382 -0.074169 0.3248813
v -0.1392714 -0.07003978 0.3728828
v 0.2381355 -0.09296191 -0.01017844
v 0.2620674 -0.09027532 -0.271941
v 0.1993466 -0.09548681 -0.2995411
v 0.109555 -0.1030042 0.07815103
v 0.3068719 -0.0850445 -0.1751853
v 0.3325711 -0.08753983 0.2240126
v 0.3854361 -0.07943331 -0.004632476
v -0.1496407 -0.08840752 -0.09931633
v 0.1993466 -0.09548681 -0.2995411
v 0.1557551 -0.09283088 -0.3558189
v 0.109555 -0.1030042 0.07815103
v 0.09067616 -0.0890825 -0.381034
v -0.3651327 -0.08880091 0.1838006
v -0.0945412 -0.08071913 -0.3871882
v -0.4450098 -0.0811132 0.06289966
v -0.3223832 -0.07263818 -0.3319262
v -0.459536 -0.07646699 -0.05117966
v -0.4119025 -0.07534263 -0.1428362
v 0.1732286 0.02746016 -0.3317225
v 0.1701582 -0.05040244 -0.3683672
v 0.2509617 -0.02628698 -0.3122894
v 0.08634773 -0.01403256 -0.3984507
v 0.2810448 0.04943859 -0.2654267
v 0.01692827 0.07736471 -0.4198379
v 0.2756719 0.07185904 -0.2550556
v 0.1347068 0.07538787 -0.3292184
v -0.3875129 -0.05065214 0.1901673
v -0.4314639 -0.01101487 0.1644849
v -0.3907944 -0.01423568 0.2263774
v -0.2989382 -0.074169 0.3248813
v -0.4450098 -0.0811132 0.06289966
v -0.3651327 -0.08880091 0.1838006
vt 0.009895325 0.5966797
vt 0.1026001 0.5732422
vt 0.006748199 0.5268555
vt 0.1063843 0.4946289
vt 0.04840088 0.4643555
vt 0.005859375 0.7856445
vt 0.09112549 0.7597656
vt 0.008399963 0.6591797
vt 0.09667969 0.6674805
vt 0.009895325 0.5966797
vt 0.1026001 0.5732422
vt 0.1063843 0.9941406
vt 0.1011963 0.9194336
vt 0.007850647 0.9277344
vt 0.09411621 0.8173828
vt 0.005859375 0.7856445
vt 0.09112549 0.7597656
vt 0.09692383 0.2827148
vt 0.008422852 0.2374268
vt 0.006896973 0.3383789
vt 0.09643555 0.1768799
vt 0.00994873 0.1374512
vt 0.1010132 0.3999023
vt 0.09692383 0.2827148
vt 0.006896973 0.3383789
vt 0.04382324 0.4196777
vt 0.1063843 0.4946289
vt 0.04840088 0.4643555
vt 0.2276611 0.3520508
vt 0.1291504 0.3881836
vt 0.2269287 0.467041
vt 0.1300049 0.4560547
vt 0.1425781 0.5205078
vt 0.1872559 0.5537109
vt 0.2275391 0.5322266
vt 0.223877 0.111145
vt 0.190918 0.07452393
vt 0.1257324 0.1137695
vt 0.2353516 0.2084961
vt 0.1733398 0.2095947
vt 0.1247559 0.1745605
vt 0.09765625 0.1151123
vt 0.1004028 0.01127625
vt 0.03225708 0.04559326
vt 0.0328064 0.06988525
vt 0.02514648 0.1086426
vt 0.00994873 0.1374512
vt 0.09643555 0.1768799
vt 0.7236328 0.4973145
vt 0.746582 0.4536133
vt 0.628418 0.5004883
vt 0.699707 0.5024414
vt 0.6601563 0.5058594
vt 0.1173706 0.7055664
vt 0.215332 0.7734375
vt 0.1745605 0.6635742
vt 0.2214355 0.6606445
vt 0.1994629 0.6118164
vt 0.2266846 0.6171875
vt 0.1286621 0.4875488
vt 0.1275635 0.5175781
vt 0.1425781 0.5205078
vt 0.1300049 0.4560547
vt 0.1580811 0.2456055
vt 0.1733398 0.2095947
vt 0.1247559 0.1745605
vt 0.1254883 0.2541504
vt 0.1168213 0.2138672
vt 0.2353516 0.2084961
vt 0.1733398 0.2095947
vt 0.1580811 0.2456055
vt 0.2276611 0.3520508
vt 0.1254883 0.2541504
vt 0.1291504 0.3881836
vt 0.2353516 0.5737305
vt 0.2275391 0.5322266
vt 0.1872559 0.5537109
vt 0.1994629 0.6118164
vt 0.2266846 0.6171875
vt 0.4968262 0.5546875
vt 0.3234863 0.5375977
vt 0.3071289 0.5756836
vt 0.4584961 0.7661133
vt 0.4394531 0.4726563
vt 0.7089844 0.6098633
vt 0.5063477 0.4797363
vt 0.6342773 0.5595703
vt 0.5366211 0.4858398
vt 0.5644531 0.4929199
vt 0.6230469 0.8203125
vt 0.7089844 0.6098633
vt 0.4584961 0.7661133
vt 0.7089844 0.6850586
vt 0.4924316 0.9863281
vt 0.7089844 0.7871094
vt 0.5698242 0.972168
vt 0.706543 0.8447266
vt 0.6396484 0.9086914
vt 0.3273926 0.7758789
vt 0.3071289 0.5756836
vt 0.2722168 0.5947266
vt 0.4584961 0.7661133
vt 0.2403564 0.6469727
vt 0.4924316 0.9863281
vt 0.2374268 0.7509766
vt 0.4052734 0.9492188
vt 0.237793 0.8125
vt 0.2993164 0.8989258
vt 0.6000977 0.3762207
vt 0.8291016 0.3999023
vt 0.7036133 0.298584
vt 0.746582 0.4536133
vt 0.411377 0.3339844
vt 0.628418 0.5004883
vt 0.4423828 0.423584
vt 0.5356445 0.4624023
vt 0.7861328 0.2531738
vt 0.8164063 0.09667969
vt 0.7797852 0.07635498
vt 0.7036133 0.298584
vt 0.8378906 0.1577148
vt 0.8291016 0.3999023
vt 0.875 0.2653809
vt 0.5576172 0.1761475
vt 0.7797852 0.07635498
vt 0.7568359 0.03979492
vt 0.7036133 0.298584
vt 0.7192383 0.02067566
vt 0.411377 0.3339844
vt 0.6079102 0.005859375
vt 0.369873 0.2565918
vt 0.467041 0.02558899
vt 0.3679199 0.1868896
vt 0.4020996 0.1342773
vt 0.1501465 0.597168
vt 0.1994629 0.6118164
vt 0.1872559 0.5537109
vt 0.1745605 0.6635742
vt 0.1425781 0.5205078
vt 0.1173706 0.7055664
vt 0.1275635 0.5175781
vt 0.1171265 0.6147461
vt 0.3857422 0.342041
vt 0.3486328 0.3293457
vt 0.3703613 0.3693848
vt 0.4423828 0.423584
vt 0.369873 0.2565918
vt 0.411377 0.3339844
vn -0.9829102 -0.1409912 0.1193848
vn -0.9814453 -0.1326904 0.1367188
vn -0.9770508 -0.1409912 0.1589355
vn -0.9736328 -0.1387939 0.1821289
vn -0.9594727 -0.1553955 0.2351074
vn -0.9023438 -0.04934692 -0.4279785
vn -0.902832 -0.04827881 -0.427002
vn -0.8945313 -0.0484314 -0.4448242
vn -0.9047852 -0.03189087 -0.4245605
vn -0.9023438 -0.02244568 -0.4301758
vn -0.9169922 0.003522873 -0.3994141
vn -0.3208008 0.03065491 -0.9467773
vn -0.3210449 0.03063965 -0.9467773
vn -0.2929688 0.06481934 -0.9541016
vn -0.2993164 0.135498 -0.9443359
vn -0.2736816 0.1593018 -0.9487305
vn -0.3574219 0.194458 -0.9135742
vn -0.2834473 -0.1577148 0.9458008
vn -0.2824707 -0.1591797 0.9458008
vn -0.2807617 -0.15625 0.9467773
vn -0.2834473 -0.1610107 0.9453125
vn -0.2810059 -0.1627197 0.9458008
vn -0.7143555 0.1762695 0.6772461
vn -0.7055664 0.1571045 0.6914063
vn -0.6884766 0.1712646 0.7045898
vn -0.7114258 0.1862793 0.6777344
vn -0.7607422 0.1734619 0.625
vn -0.7607422 0.1734619 0.625
vn 0.9047852 -0.1036377 -0.4133301
vn 0.9047852 -0.1036377 -0.4133301
vn 0.9047852 -0.1036377 -0.4133301
vn 0.9047852 -0.1036377 -0.4133301
vn 0.9047852 -0.1036377 -0.4133301
vn 0.9047852 -0.1036377 -0.4133301
vn 0.9047852 -0.1036377 -0.4133301
vn 0.6420898 -0.03918457 0.765625
vn 0.6865234 -0.03744507 0.7260742
vn 0.6826172 0.03155518 0.7299805
vn 0.6762695 0.04638672 0.7348633
vn 0.7255859 0.1324463 0.675293
vn 0.7255859 0.1324463 0.675293
vn 0.3225098 0.1269531 0.9379883
vn 0.3132324 0.1481934 0.9379883
vn 0.3132324 0.1481934 0.9379883
vn 0.3071289 0.1293945 0.9428711
vn 0.3190918 0.1114502 0.940918
vn 0.3369141 0.1246338 0.9331055
vn 0.3369141 0.1246338 0.9331055
vn 0.3840332 -0.2250977 0.8955078
vn 0.3840332 -0.2250977 0.8955078
vn 0.3840332 -0.2250977 0.8955078
vn 0.3840332 -0.2250977 0.8955078
vn 0.3840332 -0.2250977 0.8955078
vn 0.01831055 -0.2145996 -0.9765625
vn 0.0198822 -0.21875 -0.9755859
vn 0.09527588 -0.2330322 -0.9677734
vn 0.1608887 -0.2458496 -0.9560547
vn 0.2739258 -0.2597656 -0.9257813
vn 0.2739258 -0.2597656 -0.9257813
vn 0.7924805 0.3659668 -0.4882813
vn 0.7924805 0.3659668 -0.4882813
vn 0.7924805 0.3659668 -0.4882813
vn 0.7924805 0.3659668 -0.4882813
vn 0.8041992 0.458252 0.3786621
vn 0.8041992 0.458252 0.3786621
vn 0.8041992 0.458252 0.3786621
vn 0.8041992 0.458252 0.3786621
vn 0.8041992 0.458252 0.3786621
vn 0.9697266 0.09906006 0.2235107
vn 0.9697266 0.09906006 0.2235107
vn 0.9711914 0.1158447 0.2073975
vn 0.972168 0.1235352 0.1999512
vn 0.9726563 0.1350098 0.1888428
vn 0.9726563 0.1350098 0.1888428
vn 0.5556641 -0.489502 -0.671875
vn 0.5556641 -0.489502 -0.671875
vn 0.5556641 -0.489502 -0.671875
vn 0.5556641 -0.489502 -0.671875
vn 0.5556641 -0.489502 -0.671875
vn 0.03396606 0.9985352 -0.04562378
vn 0.05184937 0.9970703 -0.05245972
vn 0.03674316 0.9980469 -0.05059814
vn 0.01908875 0.9990234 -0.03778076
vn 0.03610229 0.9980469 -0.05334473
vn 0.0329895 0.9990234 -0.03570557
vn 0.04733276 0.9970703 -0.05871582
vn 0.05441284 0.9970703 -0.04998779
vn 0.05172729 0.9975586 -0.04745483
vn 0.05050659 0.9975586 -0.04852295
vn -0.04458618 0.9975586 -0.04940796
vn -0.04385376 0.9980469 -0.04803467
vn -0.04040527 0.9980469 -0.04556274
vn -0.04815674 0.9975586 -0.05303955
vn -0.04257202 0.9980469 -0.04788208
vn -0.04815674 0.9975586 -0.05303955
vn -0.04623413 0.9975586 -0.05056763
vn -0.04815674 0.9975586 -0.05303955
vn -0.04815674 0.9975586 -0.05303955
vn -0.02200317 0.9980469 0.0559082
vn -0.02200317 0.9980469 0.0559082
vn -0.02200317 0.9980469 0.0559082
vn -0.02200317 0.9980469 0.0559082
vn -0.02200317 0.9980469 0.0559082
vn -0.02200317 0.9980469 0.0559082
vn -0.02200317 0.9980469 0.0559082
vn -0.02200317 0.9980469 0.0559082
vn -0.02200317 0.9980469 0.0559082
vn -0.02200317 0.9980469 0.0559082
vn -0.00554657 -0.9941406 0.105957
vn -0.002756119 -0.9946289 0.1031494
vn -0.003545761 -0.9941406 0.1088257
vn -0.003732681 -0.9951172 0.1000977
vn -0.006156921 -0.9941406 0.1060181
vn -0.006156921 -0.9941406 0.1060181
vn -0.006156921 -0.9941406 0.1060181
vn -0.006156921 -0.9941406 0.1060181
vn 0.0838623 -0.996582 -0.006401062
vn 0.09075928 -0.9960938 -0.001923561
vn 0.08203125 -0.996582 -0.002300262
vn 0.07470703 -0.9970703 -0.004623413
vn 0.1090698 -0.9941406 -0.002269745
vn 0.08270264 -0.996582 -0.01028442
vn 0.09191895 -0.9956055 -0.01203918
vn -0.04034424 -0.9985352 -0.0319519
vn -0.03417969 -0.9990234 -0.02426147
vn -0.03735352 -0.9990234 -0.02723694
vn -0.03652954 -0.9990234 -0.02879333
vn -0.04391479 -0.9985352 -0.0350647
vn -0.04101563 -0.9985352 -0.03262329
vn -0.04391479 -0.9985352 -0.0350647
vn -0.04379272 -0.9985352 -0.03482056
vn -0.04391479 -0.9985352 -0.0350647
vn -0.04391479 -0.9985352 -0.0350647
vn -0.04391479 -0.9985352 -0.0350647
vn 0.465332 0.369873 -0.8041992
vn 0.449707 0.3588867 -0.8178711
vn 0.447998 0.3505859 -0.8222656
vn 0.5078125 0.2585449 -0.8217773
vn 0.4123535 0.4265137 -0.8051758
vn 0.5390625 0.2946777 -0.7890625
vn 0.4047852 0.4453125 -0.7988281
vn 0.5097656 0.4482422 -0.734375
vn -0.7426758 -0.5073242 0.4375
vn -0.7285156 -0.5146484 0.4521484
vn -0.7529297 -0.4970703 0.4316406
vn -0.7617188 -0.4980469 0.4140625
vn -0.7304688 -0.5112305 0.4523926
vn -0.7460938 -0.5092773 0.4289551
g Structure_Disc_0
f 3/3/3 2/2/2 1/1/1
f 4/4/4 2/2/2 3/3/3
f 5/5/5 4/4/4 3/3/3
f 8/8/8 7/7/7 6/6/6
f 8/8/8 9/9/9 7/7/7
f 8/8/8 10/10/10 9/9/9
f 10/10/10 11/11/11 9/9/9
f 14/14/14 13/13/13 12/12/12
f 14/14/14 15/15/15 13/13/13
f 16/16/16 15/15/15 14/14/14
f 16/16/16 17/17/17 15/15/15
f 20/20/20 19/19/19 18/18/18
f 19/19/19 21/21/21 18/18/18
f 22/22/22 21/21/21 19/19/19
f 25/25/25 24/24/24 23/23/23
f 23/23/23 26/26/26 25/25/25
f 26/26/26 23/23/23 27/27/27
f 28/28/28 26/26/26 27/27/27
f 31/31/31 30/30/30 29/29/29
f 31/31/31 32/32/32 30/30/30
f 33/33/33 32/32/32 31/31/31
f 34/34/34 33/33/33 31/31/31
f 35/35/35 34/34/34 31/31/31
f 38/38/38 37/37/37 36/36/36
f 38/38/38 36/36/36 39/39/39
f 39/39/39 40/40/40 38/38/38
f 40/40/40 41/41/41 38/38/38
f 44/44/44 43/43/43 42/42/42
f 45/45/45 44/44/44 42/42/42
f 46/46/46 45/45/45 42/42/42
f 46/46/46 42/42/42 47/47/47
f 42/42/42 48/48/48 47/47/47
f 51/51/51 50/50/50 49/49/49
f 49/49/49 52/52/52 51/51/51
f 52/52/52 53/53/53 51/51/51
f 56/56/56 55/55/55 54/54/54
f 56/56/56 57/57/57 55/55/55
f 56/56/56 58/58/58 57/57/57
f 58/58/58 59/59/59 57/57/57
f 62/62/62 61/61/61 60/60/60
f 63/63/63 62/62/62 60/60/60
f 66/66/66 65/65/65 64/64/64
f 64/64/64 67/67/67 66/66/66
f 67/67/67 68/68/68 66/66/66
f 71/71/71 70/70/70 69/69/69
f 72/72/72 71/71/71 69/69/69
f 73/73/73 71/71/71 72/72/72
f 74/74/74 73/73/73 72/72/72
f 77/77/77 76/76/76 75/75/75
f 75/75/75 78/78/78 77/77/77
f 75/75/75 79/79/79 78/78/78
f 82/82/82 81/81/81 80/80/80
f 83/83/83 82/82/82 80/80/80
f 81/81/81 84/84/84 80/80/80
f 85/85/85 83/83/83 80/80/80
f 84/84/84 86/86/86 80/80/80
f 87/87/87 85/85/85 80/80/80
f 86/86/86 88/88/88 80/80/80
f 89/89/89 87/87/87 80/80/80
f 88/88/88 89/89/89 80/80/80
f 92/92/92 91/91/91 90/90/90
f 91/91/91 93/93/93 90/90/90
f 94/94/94 92/92/92 90/90/90
f 93/93/93 95/95/95 90/90/90
f 96/96/96 94/94/94 90/90/90
f 95/95/95 97/97/97 90/90/90
f 98/98/98 96/96/96 90/90/90
f 97/97/97 98/98/98 90/90/90
f 101/101/101 100/100/100 99/99/99
f 100/100/100 102/102/102 99/99/99
f 103/103/103 101/101/101 99/99/99
f 102/102/102 104/104/104 99/99/99
f 105/105/105 103/103/103 99/99/99
f 104/104/104 106/106/106 99/99/99
f 107/107/107 105/105/105 99/99/99
f 106/106/106 108/108/108 99/99/99
f 108/108/108 107/107/107 99/99/99
f 111/111/111 110/110/110 109/109/109
f 110/110/110 112/112/112 109/109/109
f 113/113/113 111/111/111 109/109/109
f 112/112/112 114/114/114 109/109/109
f 115/115/115 113/113/113 109/109/109
f 114/114/114 116/116/116 109/109/109
f 116/116/116 115/115/115 109/109/109
f 119/119/119 118/118/118 117/117/117
f 120/120/120 119/119/119 117/117/117
f 118/118/118 121/121/121 117/117/117
f 122/122/122 120/120/120 117/117/117
f 121/121/121 123/123/123 117/117/117
f 123/123/123 122/122/122 117/117/117
f 126/126/126 125/125/125 124/124/124
f 125/125/125 127/127/127 124/124/124
f 128/128/128 126/126/126 124/124/124
f 127/127/127 129/129/129 124/124/124
f 130/130/130 128/128/128 124/124/124
f 129/129/129 131/131/131 124/124/124
f 132/132/132 130/130/130 124/124/124
f 131/131/131 133/133/133 124/124/124
f 134/134/134 132/132/132 124/124/124
f 133/133/133 134/134/134 124/124/124
f 137/137/137 136/136/136 135/135/135
f 136/136/136 138/138/138 135/135/135
f 139/139/139 137/137/137 135/135/135
f 138/138/138 140/140/140 135/135/135
f 141/141/141 139/139/139 135/135/135
f 140/140/140 142/142/142 135/135/135
f 142/142/142 141/141/141 135/135/135
f 145/145/145 144/144/144 143/143/143
f 146/146/146 145/145/145 143/143/143
f 144/144/144 147/147/147 143/143/143
f 148/148/148 146/146/146 143/143/143
f 147/147/147 148/148/148 143/143/143
