g Structure_Boulder
v 0.361763 -0.5723305 0.7828774
v 0.5844982 -0.1985393 0.602342
v 0.5561514 -0.56235 0.712374
v 0.09900215 0.5661337 0.5603132
v -0.3790312 0.6812077 0.7622331
v -0.008372758 0.8105096 0.3631863
v -0.4212265 0.4935865 1.030578
v -0.4010749 0.04782489 1.178657
v -0.5558865 0.3132202 1.059165
v 0.9189898 -0.6498356 -0.8119925
v 1.172047 -0.6112333 -0.3779254
v 0.941466 -0.5620357 -0.9479412
v 1.023295 0.2544003 -0.04332795
v 1.112577 0.106434 -0.6060356
v 1.265414 -0.5688221 0.01517273
v 1.172047 -0.6112333 -0.3779254
v 1.071325 -0.02175402 -0.8465192
v 0.941466 -0.5620357 -0.9479412
v -0.4010749 0.04782489 1.178657
v -0.1973633 -0.6043832 1.111646
v -0.5624573 -0.6564232 0.898163
v -0.575388 -0.3254605 0.9820617
v -0.9665585 -0.6017059 0.4024425
v -0.5558865 0.3132202 1.059165
v -1.050132 -0.3305162 0.3588836
v -0.8326406 0.2314123 0.7746363
v 0.6734318 -0.4687482 -1.157823
v 0.941466 -0.5620357 -0.9479412
v 1.071325 -0.02175402 -0.8465192
v 0.907921 0.1618404 -0.9539115
v 0.6734318 -0.4687482 -1.157823
v 0.3981307 -0.3695518 -1.193626
v -0.2953536 -0.4912228 -1.13089
v 0.6496861 -0.6734613 -0.9374142
v -0.3049535 -0.5974903 -1.002764
v 0.941466 -0.5620357 -0.9479412
v 0.9189898 -0.6498356 -0.8119925
v -0.9316086 0.5072452 -0.1966728
v -1.080879 -0.09564276 -0.0798673
v -0.8715575 0.2617042 -0.5804678
v -0.9274387 0.5188858 0.1001555
v -0.9359279 0.3009564 0.4285852
v -1.050132 -0.3305162 0.3588836
v -0.8326406 0.2314123 0.7746363
v -0.5558865 0.3132202 1.059165
v -0.8326406 0.2314123 0.7746363
v -0.4212265 0.4935865 1.030578
v -0.7878227 0.473528 0.5345457
v -0.9359279 0.3009564 0.4285852
v -0.9274387 0.5188858 0.1001555
v -0.5692918 0.7798308 0.1004781
v -0.9316086 0.5072452 -0.1966728
v -0.6228404 0.7031478 -0.333062
v -0.5842378 0.7018147 0.4779134
v -0.3570313 0.834527 -0.1356321
v -0.3873217 0.7517241 -0.4784292
v -0.2164437 0.8738069 0.2594928
v -0.3790312 0.6812077 0.7622331
v -0.3383112 0.5965838 0.9298161
v -0.008372758 0.8105096 0.3631863
v -0.00865886 0.7250503 -0.5013946
v -0.3873217 0.7517241 -0.4784292
v -0.6308 0.4385239 -0.6428033
v -0.3013954 0.2460427 -0.7683553
v -0.4164064 -0.004870464 -0.9081797
v 0.2614236 0.524094 -0.7336503
v -0.02218172 -0.243537 -1.058244
v -0.2953536 -0.4912228 -1.13089
v 0.3981307 -0.3695518 -1.193626
v 0.560549 -0.05123931 -1.066036
v 0.907921 0.1618404 -0.9539115
v 0.6734318 -0.4687482 -1.157823
v 0.2377918 0.682581 0.5380065
v 1.023295 0.2544003 -0.04332795
v 0.3486934 0.4409298 0.5481246
v 0.245014 0.291785 0.7332917
v 0.07387783 0.5507703 0.6931061
v 0.0427685 -0.09929226 0.9883898
v -0.3383112 0.5965838 0.9298161
v -0.4212265 0.4935865 1.030578
v -0.4010749 0.04782489 1.178657
v 0.07794311 -0.5863561 1.012635
v -0.1973633 -0.6043832 1.111646
v 0.361763 -0.5723305 0.7828774
v 0.3597414 -0.2213761 0.8214222
v 0.5844982 -0.1985393 0.602342
v 1.146304 -0.6375353 0.1695333
v 1.265414 -0.5688221 0.01517273
v 0.5561514 -0.56235 0.712374
v 0.2377918 0.682581 0.5380065
v 0.09900215 0.5661337 0.5603132
v -0.008372758 0.8105096 0.3631863
v 0.3486934 0.4409298 0.5481246
v -0.2953536 -0.4912228 -1.13089
v -0.7240927 -0.6408242 -0.3953547
v -0.3049535 -0.5974903 -1.002764
v -0.7045119 -0.2205818 -0.6483369
v -0.8715575 0.2617042 -0.5804678
v -0.9475365 -0.1970783 -0.353739
v -0.8955648 -0.6111376 -0.0689032
v -1.080879 -0.09564276 -0.0798673
v -0.9665585 -0.6017059 0.4024425
v -1.050132 -0.3305162 0.3588836
v 0.6335356 -0.6389563 0.3804502
v 0.361763 -0.5723305 0.7828774
v 0.5561514 -0.56235 0.712374
v 1.146304 -0.6375353 0.1695333
v 0.9786241 -0.6938705 -0.02325845
v 1.061701 -0.6679598 -0.3511104
v 1.172047 -0.6112333 -0.3779254
v 0.9189898 -0.6498356 -0.8119925
v 1.265414 -0.5688221 0.01517273
v -0.3790312 0.6812077 0.7622331
v 0.09900215 0.5661337 0.5603132
v -0.3383112 0.5965838 0.9298161
v 0.07387783 0.5507703 0.6931061
v 0.3486934 0.4409298 0.5481246
v 0.907921 0.1618404 -0.9539115
v 1.071325 -0.02175402 -0.8465192
v 1.112577 0.106434 -0.6060356
v 0.8196478 0.3246103 -0.7231551
v 0.2614236 0.524094 -0.7336503
v 0.7957785 0.4540448 -0.1932693
v 1.023295 0.2544003 -0.04332795
v 0.2377918 0.682581 0.5380065
v 0.4567978 0.607671 -0.3783635
v -0.00865886 0.7250503 -0.5013946
v 0.1692214 0.8040974 0.1775245
v -0.008372758 0.8105096 0.3631863
v -0.2164437 0.8738069 0.2594928
v 0.02614382 0.8514916 -0.08241232
v -0.3873217 0.7517241 -0.4784292
v -0.3570313 0.834527 -0.1356321
v -0.6228404 0.7031478 -0.333062
v -0.6308 0.4385239 -0.6428033
v -0.3873217 0.7517241 -0.4784292
v -0.9316086 0.5072452 -0.1966728
v -0.8715575 0.2617042 -0.5804678
v -0.4164064 -0.004870464 -0.9081797
v -0.2953536 -0.4912228 -1.13089
v 0.6261766 -0.6889666 -0.1797678
v 0.9786241 -0.6938705 -0.02325845
v 1.061701 -0.6679598 -0.3511104
v 0.9189898 -0.6498356 -0.8119925
v 0.6335356 -0.6389563 0.3804502
v -0.1650452 -0.6331565 0.5451394
v 0.361763 -0.5723305 0.7828774
v 0.07794311 -0.5863561 1.012635
v -0.1973633 -0.6043832 1.111646
v -0.5624573 -0.6564232 0.898163
v 0.3011437 -0.737048 -0.4438705
v 0.6496861 -0.6734613 -0.9374142
v -0.3190331 -0.6973768 -0.2210846
v -0.3049535 -0.5974903 -1.002764
v -0.7240927 -0.6408242 -0.3953547
v -0.8955648 -0.6111376 -0.0689032
v -0.6621983 -0.6793454 0.5222493
v -0.9665585 -0.6017059 0.4024425
vt 0.2692871 0.6201172
vt 0.2558594 0.7133789
vt 0.2976074 0.6499023
vt 0.7050781 0.921875
vt 0.6586914 0.8261719
vt 0.6401367 0.9355469
vt 0.9511719 0.3398438
vt 0.8813477 0.4020996
vt 0.9443359 0.3842773
vt 0.7705078 0.6362305
vt 0.8120117 0.5458984
vt 0.7387695 0.6435547
vt 0.3647461 0.00390625
vt 0.3710938 0.12854
vt 0.5444336 0.03451538
vt 0.5302734 0.119873
vt 0.3842773 0.1854248
vt 0.4873047 0.2423096
vt 0.8813477 0.4020996
vt 0.7807617 0.4938965
vt 0.8432617 0.5507813
vt 0.8764648 0.4921875
vt 0.9487305 0.6225586
vt 0.9443359 0.3842773
vt 0.9960938 0.5908203
vt 0.9960938 0.4458008
vt 0.4528809 0.3063965
vt 0.4873047 0.2423096
vt 0.3842773 0.1854248
vt 0.3493652 0.2214355
vt 0.7148438 0.7089844
vt 0.7119141 0.7675781
vt 0.7797852 0.8896484
vt 0.7729492 0.6953125
vt 0.8120117 0.8813477
vt 0.7387695 0.6435547
vt 0.7705078 0.6362305
vt 0.4755859 0.4699707
vt 0.4558105 0.5908203
vt 0.5556641 0.5141602
vt 0.4152832 0.4697266
vt 0.3515625 0.5161133
vt 0.3740234 0.6425781
vt 0.2797852 0.53125
vt 0.6865234 0.7294922
vt 0.6083984 0.7094727
vt 0.6972656 0.7734375
vt 0.5756836 0.769043
vt 0.5390625 0.7353516
vt 0.4885254 0.7963867
vt 0.5307617 0.8730469
vt 0.435791 0.8242188
vt 0.447998 0.9013672
vt 0.590332 0.8276367
vt 0.512207 0.9335938
vt 0.4448242 0.9580078
vt 0.5952148 0.9179688
vt 0.6586914 0.8261719
vt 0.6914063 0.8066406
vt 0.6401367 0.9355469
vt 0.1544189 0.315918
vt 0.1102295 0.3771973
vt 0.1533203 0.4526367
vt 0.2233887 0.4155273
vt 0.2634277 0.4609375
vt 0.229248 0.2958984
vt 0.3476563 0.4155273
vt 0.3691406 0.487793
vt 0.4155273 0.3530273
vt 0.3659668 0.2983398
vt 0.3493652 0.2214355
vt 0.4528809 0.3063965
vt 0.09155273 0.8066406
vt 0.2866211 0.8896484
vt 0.138916 0.7832031
vt 0.1364746 0.7319336
vt 0.0791626 0.7553711
vt 0.1500244 0.6333008
vt 0.005729675 0.6958008
vt 0.00390625 0.6625977
vt 0.06072998 0.5883789
vt 0.2202148 0.5668945
vt 0.1806641 0.5239258
vt 0.2692871 0.6201172
vt 0.2165527 0.6655273
vt 0.2558594 0.7133789
vt 0.4150391 0.7587891
vt 0.4299316 0.796875
vt 0.2976074 0.6499023
vt 0.7001953 0.9580078
vt 0.7050781 0.921875
vt 0.6401367 0.9355469
vt 0.7519531 0.9521484
vt 0.7158203 0.6674805
vt 0.5439453 0.7011719
vt 0.6938477 0.6928711
vt 0.5883789 0.612793
vt 0.5556641 0.5141602
vt 0.5136719 0.6074219
vt 0.4689941 0.6962891
vt 0.4558105 0.5908203
vt 0.3735352 0.7011719
vt 0.3740234 0.6425781
vt 0.5292969 0.2731934
vt 0.5449219 0.177124
vt 0.5151367 0.2053223
vt 0.4538574 0.3532715
vt 0.5009766 0.3747559
vt 0.512207 0.4404297
vt 0.4921875 0.4560547
vt 0.5756836 0.512207
vt 0.4414063 0.3928223
vt 0.6586914 0.8261719
vt 0.7050781 0.921875
vt 0.6914063 0.8066406
vt 0.7182617 0.8979492
vt 0.7519531 0.9521484
vt 0.3493652 0.2214355
vt 0.3842773 0.1854248
vt 0.3366699 0.145752
vt 0.2980957 0.2094727
vt 0.229248 0.2958984
vt 0.2125244 0.1512451
vt 0.2319336 0.08734131
vt 0.02572632 0.1442871
vt 0.1916504 0.2281494
vt 0.1544189 0.315918
vt 0.06616211 0.2095947
vt 0.01485443 0.2111816
vt 0.004180908 0.2612305
vt 0.08734131 0.263916
vt 0.1102295 0.3771973
vt 0.05239868 0.3325195
vt 0.07562256 0.4245605
vt 0.1533203 0.4526367
vt 0.1102295 0.3771973
vt 0.05529785 0.503418
vt 0.1503906 0.5141602
vt 0.2634277 0.4609375
vt 0.3691406 0.487793
vt 0.5771484 0.3740234
vt 0.5009766 0.3747559
vt 0.512207 0.4404297
vt 0.5756836 0.512207
vt 0.5292969 0.2731934
vt 0.6601563 0.1779785
vt 0.5449219 0.177124
vt 0.578125 0.1126099
vt 0.6201172 0.0725708
vt 0.7045898 0.08203125
vt 0.6572266 0.3950195
vt 0.6352539 0.5126953
vt 0.7509766 0.3041992
vt 0.8134766 0.4470215
vt 0.8388672 0.3027344
vt 0.8442383 0.2296143
vt 0.7524414 0.1422119
vt 0.8188477 0.1381836
vn 0.3186035 0.2514648 0.9140625
vn 0.3186035 0.2514648 0.9140625
vn 0.3186035 0.2514648 0.9140625
vn 0.4191895 0.6743164 0.6079102
vn 0.4191895 0.6743164 0.6079102
vn 0.4191895 0.6743164 0.6079102
vn -0.2043457 0.300293 0.9316406
vn -0.2043457 0.300293 0.9316406
vn -0.2043457 0.300293 0.9316406
vn 0.6621094 -0.6743164 -0.3261719
vn 0.6621094 -0.6743164 -0.3261719
vn 0.6621094 -0.6743164 -0.3261719
vn 0.9550781 0.286377 0.07623291
vn 0.9882813 0.1229248 -0.09283447
vn 0.9863281 0.1271973 -0.1044312
vn 0.9628906 -0.03390503 -0.2685547
vn 0.9633789 -0.0456543 -0.2644043
vn 0.9125977 -0.147583 -0.3818359
vn -0.6225586 -0.1172485 0.7739258
vn -0.4658203 -0.2331543 0.8535156
vn -0.6459961 -0.2106934 0.7338867
vn -0.6420898 -0.1776123 0.7460938
vn -0.7832031 -0.1551514 0.6025391
vn -0.6962891 -0.06500244 0.7148438
vn -0.7866211 -0.1434326 0.6005859
vn -0.7480469 -0.1013794 0.6557617
vn 0.6074219 0.01248932 -0.7944336
vn 0.6162109 -0.0003535748 -0.7875977
vn 0.5927734 0.03283691 -0.8046875
vn 0.5834961 0.04516602 -0.8105469
vn 0.08129883 -0.6918945 -0.7172852
vn -0.02050781 -0.002439499 -1
vn -0.0004730225 -0.7724609 -0.6352539
vn 0.1386719 -0.7792969 -0.6108398
vn 0.0001778603 -0.8178711 -0.5751953
vn 0.2790527 -0.7832031 -0.5551758
vn 0.2971191 -0.8237305 -0.4829102
vn -0.96875 0.2161865 -0.1223145
vn -0.9814453 0.1911621 0.01835632
vn -0.9467773 0.1829834 -0.2651367
vn -0.9726563 0.2253418 0.05947876
vn -0.9638672 0.1677246 0.2069092
vn -0.9677734 0.152832 0.2011719
vn -0.9414063 0.1362305 0.3083496
vn -0.6640625 0.5722656 0.4814453
vn -0.7070313 0.5576172 0.4345703
vn -0.5908203 0.6591797 0.4650879
vn -0.7084961 0.6132813 0.348877
vn -0.8071289 0.4943848 0.322998
vn -0.6459961 0.7553711 0.1101074
vn -0.4528809 0.8896484 0.0553894
vn -0.5717773 0.8188477 -0.05380249
vn -0.439209 0.890625 -0.1193237
vn -0.4975586 0.8178711 0.2885742
vn -0.3188477 0.9423828 -0.1002197
vn -0.3129883 0.9291992 -0.1967773
vn -0.1569824 0.9594727 0.2340088
vn -0.3945313 0.8261719 0.4018555
vn -0.3808594 0.784668 0.4887695
vn 0.08978271 0.9199219 0.3815918
vn -0.1378174 0.5405273 -0.8295898
vn -0.01972961 0.4765625 -0.8789063
vn -0.03240967 0.4960938 -0.8676758
vn -0.08758545 0.4943848 -0.8647461
vn -0.04959106 0.4748535 -0.8789063
vn -0.1647949 0.4997559 -0.8505859
vn -0.1368408 0.4294434 -0.8925781
vn -0.1281738 0.4067383 -0.9042969
vn -0.01953125 0.3674316 -0.9296875
vn -0.01687622 0.4042969 -0.9145508
vn 0.04553223 0.4177246 -0.9072266
vn 0.2067871 0.2305908 -0.9506836
vn 0.671875 0.3359375 0.6601563
vn 0.6943359 0.2817383 0.6625977
vn 0.6484375 0.3691406 0.6655273
vn 0.5356445 0.3586426 0.7646484
vn 0.4838867 0.3864746 0.7851563
vn 0.4794922 0.177002 0.859375
vn 0.5073242 0.3442383 0.7900391
vn 0.5 0.3344727 0.7988281
vn 0.4362793 0.2132568 0.8740234
vn 0.5009766 0.05990601 0.8632813
vn 0.3378906 0.008842468 0.940918
vn 0.6044922 -0.01538086 0.7963867
vn 0.5888672 0.06665039 0.8056641
vn 0.6899414 0.2022705 0.6948242
vn 0.703125 0.2391357 0.6699219
vn 0.7075195 0.2548828 0.6591797
vn 0.6791992 0.1635742 0.7158203
vn -0.1125488 0.3146973 0.9423828
vn -0.1209106 0.3239746 0.9384766
vn -0.3024902 0.5141602 0.8022461
vn 0.09002686 0.08288574 0.9926758
vn -0.7597656 -0.3730469 -0.5327148
vn -0.7983398 -0.34375 -0.494873
vn -0.6713867 -0.5449219 -0.5024414
vn -0.7856445 -0.2382813 -0.5712891
vn -0.8212891 -0.1496582 -0.550293
vn -0.8510742 -0.2327881 -0.4707031
vn -0.8969727 -0.3544922 -0.2646484
vn -0.925293 -0.2529297 -0.282959
vn -0.9379883 -0.3256836 -0.1193237
vn -0.9462891 -0.307373 -0.0982666
vn 0.1022339 -0.9672852 0.2318115
vn 0.1411133 -0.9570313 0.2536621
vn 0.1313477 -0.9599609 0.248291
vn 0.2590332 -0.9589844 0.116394
vn 0.2727051 -0.9580078 0.08740234
vn 0.3989258 -0.9135742 -0.07733154
vn 0.4101563 -0.9086914 -0.07879639
vn 0.4189453 -0.8930664 -0.1647949
vn 0.4804688 -0.8769531 -0.01953125
vn 0.3566895 0.8662109 0.3505859
vn 0.3752441 0.9052734 0.1984863
vn 0.3361816 0.8842773 0.3249512
vn 0.2731934 0.9482422 0.161377
vn 0.4477539 0.8745117 0.1859131
vn 0.6054688 0.7050781 -0.3696289
vn 0.7895508 0.4750977 -0.3886719
vn 0.6899414 0.6875 -0.2263184
vn 0.482666 0.8164063 -0.3166504
vn 0.3171387 0.8642578 -0.390625
vn 0.5732422 0.8188477 -0.01730347
vn 0.6455078 0.7626953 0.03591919
vn 0.472168 0.8574219 0.2039795
vn 0.3959961 0.8876953 -0.2352295
vn 0.2062988 0.925293 -0.3188477
vn 0.3857422 0.9169922 0.0993042
vn 0.2485352 0.9467773 0.2050781
vn 0.1078491 0.9936523 0.03469849
vn 0.2045898 0.9697266 -0.1330566
vn 0.0223999 0.9638672 -0.2661133
vn -0.01864624 0.9833984 -0.1791992
vn -0.5488281 0.6459961 -0.5307617
vn -0.5361328 0.5224609 -0.6625977
vn -0.4846191 0.6713867 -0.5610352
vn -0.6025391 0.6206055 -0.5019531
vn -0.5410156 0.4763184 -0.6928711
vn -0.4472656 0.2805176 -0.8491211
vn -0.4492188 0.2770996 -0.8491211
vn 0.03521729 -0.9985352 0.04119873
vn -0.01574707 -1 0.004138947
vn 0.06585693 -0.9970703 -0.03890991
vn 0.1001587 -0.9946289 -0.03186035
vn 0.001554489 -0.9936523 0.1117554
vn 0.06420898 -0.9946289 0.07873535
vn 0.05447388 -0.9897461 0.1324463
vn 0.08813477 -0.9946289 0.05377197
vn 0.09631348 -0.9936523 0.05596924
vn 0.03753662 -0.9975586 0.06204224
vn -0.02682495 -0.9980469 -0.06054688
vn 0.03494263 -0.9951172 -0.09094238
vn -0.07092285 -0.9970703 -0.02993774
vn -0.0736084 -0.9892578 -0.1276855
vn -0.1229248 -0.9897461 -0.07513428
vn -0.1723633 -0.9848633 -0.02824402
vn -0.1208496 -0.9907227 0.06173706
vn -0.2536621 -0.9672852 0.01792908
g Structure_Boulder_0
f 3/3/3 2/2/2 1/1/1
f 6/6/6 5/5/5 4/4/4
f 9/9/9 8/8/8 7/7/7
f 12/12/12 11/11/11 10/10/10
f 15/15/15 14/14/14 13/13/13
f 15/15/15 16/16/16 14/14/14
f 14/14/14 16/16/16 17/17/17
f 16/16/16 18/18/18 17/17/17
f 21/21/21 20/20/20 19/19/19
f 19/19/19 22/22/22 21/21/21
f 22/22/22 23/23/23 21/21/21
f 24/24/24 22/22/22 19/19/19
f 22/22/22 25/25/25 23/23/23
f 26/26/26 22/22/22 24/24/24
f 25/25/25 22/22/22 26/26/26
f 29/29/29 28/28/28 27/27/27
f 30/30/30 29/29/29 27/27/27
f 33/33/33 32/32/32 31/31/31
f 31/31/31 34/34/34 33/33/33
f 34/34/34 35/35/35 33/33/33
f 36/36/36 34/34/34 31/31/31
f 36/36/36 37/37/37 34/34/34
f 40/40/40 39/39/39 38/38/38
f 38/38/38 39/39/39 41/41/41
f 41/41/41 39/39/39 42/42/42
f 42/42/42 39/39/39 43/43/43
f 42/42/42 43/43/43 44/44/44
f 47/47/47 46/46/46 45/45/45
f 47/47/47 48/48/48 46/46/46
f 48/48/48 49/49/49 46/46/46
f 48/48/48 50/50/50 49/49/49
f 50/50/50 48/48/48 51/51/51
f 50/50/50 51/51/51 52/52/52
f 51/51/51 53/53/53 52/52/52
f 48/48/48 47/47/47 54/54/54
f 48/48/48 54/54/54 51/51/51
f 53/53/53 51/51/51 55/55/55
f 56/56/56 53/53/53 55/55/55
f 51/51/51 57/57/57 55/55/55
f 54/54/54 57/57/57 51/51/51
f 47/47/47 58/58/58 54/54/54
f 57/57/57 54/54/54 58/58/58
f 58/58/58 47/47/47 59/59/59
f 58/58/58 60/60/60 57/57/57
f 63/63/63 62/62/62 61/61/61
f 63/63/63 61/61/61 64/64/64
f 64/64/64 65/65/65 63/63/63
f 64/64/64 61/61/61 66/66/66
f 65/65/65 64/64/64 67/67/67
f 67/67/67 64/64/64 66/66/66
f 65/65/65 67/67/67 68/68/68
f 69/69/69 68/68/68 67/67/67
f 66/66/66 70/70/70 67/67/67
f 67/67/67 70/70/70 69/69/69
f 71/71/71 70/70/70 66/66/66
f 71/71/71 69/69/69 70/70/70
f 71/71/71 72/72/72 69/69/69
f 75/75/75 74/74/74 73/73/73
f 74/74/74 75/75/75 76/76/76
f 75/75/75 77/77/77 76/76/76
f 76/76/76 77/77/77 78/78/78
f 77/77/77 79/79/79 78/78/78
f 79/79/79 80/80/80 78/78/78
f 80/80/80 81/81/81 78/78/78
f 82/82/82 78/78/78 81/81/81
f 83/83/83 82/82/82 81/81/81
f 82/82/82 84/84/84 78/78/78
f 85/85/85 78/78/78 84/84/84
f 78/78/78 85/85/85 76/76/76
f 84/84/84 86/86/86 85/85/85
f 85/85/85 86/86/86 76/76/76
f 86/86/86 74/74/74 76/76/76
f 86/86/86 87/87/87 74/74/74
f 87/87/87 88/88/88 74/74/74
f 89/89/89 87/87/87 86/86/86
f 92/92/92 91/91/91 90/90/90
f 91/91/91 93/93/93 90/90/90
f 96/96/96 95/95/95 94/94/94
f 94/94/94 95/95/95 97/97/97
f 98/98/98 94/94/94 97/97/97
f 95/95/95 99/99/99 97/97/97
f 98/98/98 97/97/97 99/99/99
f 100/100/100 99/99/99 95/95/95
f 98/98/98 99/99/99 101/101/101
f 99/99/99 100/100/100 101/101/101
f 100/100/100 102/102/102 101/101/101
f 101/101/101 102/102/102 103/103/103
f 106/106/106 105/105/105 104/104/104
f 107/107/107 106/106/106 104/104/104
f 108/108/108 107/107/107 104/104/104
f 107/107/107 108/108/108 109/109/109
f 110/110/110 107/107/107 109/109/109
f 110/110/110 109/109/109 111/111/111
f 112/112/112 107/107/107 110/110/110
f 115/115/115 114/114/114 113/113/113
f 114/114/114 115/115/115 116/116/116
f 117/117/117 114/114/114 116/116/116
f 120/120/120 119/119/119 118/118/118
f 118/118/118 121/121/121 120/120/120
f 122/122/122 121/121/121 118/118/118
f 120/120/120 121/121/121 123/123/123
f 123/123/123 124/124/124 120/120/120
f 124/124/124 123/123/123 125/125/125
f 121/121/121 122/122/122 126/126/126
f 121/121/121 126/126/126 123/123/123
f 122/122/122 127/127/127 126/126/126
f 125/125/125 123/123/123 128/128/128
f 126/126/126 128/128/128 123/123/123
f 128/128/128 129/129/129 125/125/125
f 130/130/130 129/129/129 128/128/128
f 127/127/127 131/131/131 126/126/126
f 131/131/131 128/128/128 126/126/126
f 130/130/130 128/128/128 131/131/131
f 132/132/132 131/131/131 127/127/127
f 133/133/133 130/130/130 131/131/131
f 132/132/132 133/133/133 131/131/131
f 136/136/136 135/135/135 134/134/134
f 137/137/137 134/134/134 135/135/135
f 138/138/138 137/137/137 135/135/135
f 138/138/138 135/135/135 139/139/139
f 139/139/139 140/140/140 138/138/138
f 143/143/143 142/142/142 141/141/141
f 143/143/143 141/141/141 144/144/144
f 142/142/142 145/145/145 141/141/141
f 145/145/145 146/146/146 141/141/141
f 145/145/145 147/147/147 146/146/146
f 147/147/147 148/148/148 146/146/146
f 148/148/148 149/149/149 146/146/146
f 149/149/149 150/150/150 146/146/146
f 141/141/141 151/151/151 144/144/144
f 151/151/151 141/141/141 146/146/146
f 144/144/144 151/151/151 152/152/152
f 152/152/152 151/151/151 153/153/153
f 153/153/153 151/151/151 146/146/146
f 154/154/154 152/152/152 153/153/153
f 154/154/154 153/153/153 155/155/155
f 155/155/155 153/153/153 156/156/156
f 146/146/146 150/150/150 157/157/157
f 153/153/153 146/146/146 157/157/157
f 153/153/153 157/157/157 156/156/156
f 150/150/150 158/158/158 157/157/157
f 157/157/157 158/158/158 156/156/156
